<?xml version="1.0" encoding="UTF-8" standalone="no"?>
<!DOCTYPE svg PUBLIC "-//W3C//DTD SVG 1.1//EN" "http://www.w3.org/Graphics/SVG/1.1/DTD/svg11.dtd">
<svg width="100%" height="100%" viewBox="0 0 1485 1420" version="1.1" xmlns="http://www.w3.org/2000/svg" xmlns:xlink="http://www.w3.org/1999/xlink" xml:space="preserve" style="fill-rule:evenodd;clip-rule:evenodd;stroke-linejoin:round;stroke-miterlimit:1.41421;">
    <g transform="matrix(1,0,0,1,-494.132,-1907.62)">
        <g transform="matrix(3.7956,0,0,3.7956,478.948,1858.22)">
            <path d="M330.248,144.093C363.836,163.664 388.348,197.985 393.894,239.494C403.431,310.846 353.318,376.416 281.966,385.953C252.14,389.939 223.316,383.498 199.177,369.443" style="fill:rgb(51,51,51);fill-rule:nonzero;"/>
        </g>
        <g transform="matrix(3.7956,0,0,3.7956,478.948,1858.22)">
            <path d="M199.176,369.439C184.934,377.605 168.9,383.197 151.621,385.507C80.271,395.045 14.699,344.932 5.164,273.584C-1.987,220.074 24.411,169.808 68.159,143.999C68.615,143.729 69.074,143.463 69.534,143.199" style="fill:rgb(136,136,136);fill-rule:nonzero;"/>
        </g>
        <g transform="matrix(3.7956,0,0,3.7956,478.948,1858.22)">
            <path d="M69.535,143.206C69.672,79.012 117.227,23.195 182.626,14.455C253.975,4.918 319.545,55.031 329.082,126.381C329.879,132.332 330.26,138.245 330.248,144.087" style="fill:white;fill-rule:nonzero;stroke:black;stroke-width:0.55px;"/>
        </g>
        <g transform="matrix(3.7956,0,0,3.7956,478.948,1858.22)">
            <path d="M198.508,144.443C213.088,135.839 229.602,129.954 247.44,127.569C277.278,123.58 306.106,130.026 330.249,144.092L330.249,144.086C330.147,191.318 304.374,234.015 264.718,256.763" style="fill:rgb(153,153,153);fill-rule:nonzero;"/>
        </g>
        <g transform="matrix(3.7956,0,0,3.7956,478.948,1858.22)">
            <path d="M134.347,256.314C100.764,236.746 76.247,202.421 70.698,160.913C69.904,154.961 69.526,149.048 69.536,143.206L69.535,143.199C83.777,135.03 99.811,129.434 117.09,127.125C146.926,123.138 175.749,129.579 199.892,143.641" style="fill:rgb(221,221,221);fill-rule:nonzero;"/>
        </g>
        <g transform="matrix(3.7956,0,0,3.7956,478.948,1858.22)">
            <path d="M264.709,256.76C264.613,303.996 238.842,346.692 199.176,369.44L199.178,369.444C165.585,349.876 141.061,315.548 135.511,274.03C134.715,268.075 134.337,262.163 134.347,256.319" style="fill:rgb(68,68,68);fill-rule:nonzero;"/>
        </g>
        <g transform="matrix(3.7956,0,0,3.7956,478.948,1858.22)">
            <path d="M264.717,256.764C250.469,264.932 234.438,270.53 217.158,272.84C187.32,276.824 158.489,270.385 134.346,256.315L134.346,256.319C134.447,209.637 159.624,167.382 198.507,144.444L199.89,143.641C233.48,163.211 258.001,197.536 263.55,239.049C264.343,245.004 264.724,250.916 264.708,256.76L264.717,256.764Z" style="fill:rgb(35,34,36);fill-rule:nonzero;"/>
        </g>
    </g>
</svg>
