<?xml version="1.0" encoding="UTF-8" standalone="no"?>
<!DOCTYPE svg PUBLIC "-//W3C//DTD SVG 1.1//EN" "http://www.w3.org/Graphics/SVG/1.1/DTD/svg11.dtd">
<svg width="100%" height="100%" viewBox="0 0 1423 1423" version="1.1" xmlns="http://www.w3.org/2000/svg" xmlns:xlink="http://www.w3.org/1999/xlink" xml:space="preserve" style="fill-rule:evenodd;clip-rule:evenodd;stroke-linecap:round;stroke-linejoin:round;stroke-miterlimit:1.5;">
    <g transform="matrix(1,0,0,1,-271.16,-1438.16)">
        <g>
            <path d="M1578.32,1772.72C1578.32,1772.72 930.183,1937.13 800.599,1973.02C795.761,1974.36 793.988,1983.49 797.438,1987.13C807.063,1997.3 826.499,1993.29 838.852,1990.33C970.968,1958.7 1593.5,1798.3 1593.5,1798.3" style="fill:none;stroke:rgb(225,69,61);stroke-width:8.33px;"/>
            <g transform="matrix(1,0,0,1,39.509,19.1475)">
                <path d="M1554,1778.92C1554,1778.92 930.183,1937.13 800.599,1973.02C795.761,1974.36 793.988,1983.49 797.438,1987.13C807.063,1997.3 826.499,1993.29 838.852,1990.33C970.968,1958.7 1569.77,1804.84 1569.77,1804.84" style="fill:none;stroke:rgb(225,69,61);stroke-width:8.33px;"/>
            </g>
            <g transform="matrix(1,0,0,1,76.8802,38.5889)">
                <path d="M1533.01,1785.39C1533.01,1785.39 930.183,1937.13 800.599,1973.02C795.761,1974.36 793.988,1983.49 797.438,1987.13C807.063,1997.3 826.499,1993.29 838.852,1990.33C970.968,1958.7 1545.49,1811.77 1545.49,1811.77" style="fill:none;stroke:rgb(225,69,61);stroke-width:8.33px;"/>
            </g>
            <g transform="matrix(1,0,0,1,115.217,58.4213)">
                <path d="M1505.52,1791.93C1505.52,1791.93 914.282,1941.54 800.599,1973.02C795.761,1974.36 793.988,1983.49 797.438,1987.13C807.063,1997.3 826.499,1993.29 838.852,1990.33C970.968,1958.7 1517.8,1817.8 1517.8,1817.8" style="fill:none;stroke:rgb(225,69,61);stroke-width:8.33px;"/>
            </g>
            <g transform="matrix(1,0,0,1,154.912,76.5348)">
                <path d="M1478.1,1799.69C1478.1,1799.69 930.183,1937.13 800.599,1973.02C795.761,1974.36 793.988,1983.49 797.438,1987.13C807.063,1997.3 826.499,1993.29 838.852,1990.33C970.968,1958.7 1489.14,1825.8 1489.14,1825.8" style="fill:none;stroke:rgb(225,69,61);stroke-width:8.33px;"/>
            </g>
            <g transform="matrix(1,0,0,1,186.153,97.0115)">
                <path d="M1457.98,1805.32C1457.98,1805.32 930.183,1937.13 800.599,1973.02C795.761,1974.36 793.988,1983.49 797.438,1987.13C807.063,1997.3 826.499,1993.29 838.852,1990.33C970.968,1958.7 1467.64,1830.46 1467.64,1830.46" style="fill:none;stroke:rgb(225,69,61);stroke-width:8.33px;"/>
            </g>
            <path d="M651.059,1965.72L651.059,2772.23" style="fill:none;stroke:rgb(225,69,61);stroke-width:8.33px;"/>
            <g transform="matrix(0.966545,0,0,0.966545,-205.901,377.729)">
                <circle cx="1229.3" cy="1832.86" r="731.411" style="fill:none;stroke:rgb(225,69,61);stroke-width:8.62px;"/>
            </g>
            <path d="M1565.74,1750.16L1540.46,1714.94L874.683,1880.54C874.683,1880.54 871.829,1896.26 854.797,1904.7C837.521,1913.26 805.035,1901.23 805.035,1901.23L677.153,1934.99L728.075,1965.72L810.533,1942.53C810.533,1942.53 835.045,1948.99 857.623,1943.66C874.489,1939.67 882.632,1926.29 882.632,1926.29L1565.74,1750.16Z" style="fill:none;stroke:rgb(225,69,61);stroke-width:8.33px;"/>
            <path d="M728.075,1965.72L1007.93,2114.44L1088.92,2094.32C1088.92,2094.32 1099.33,2075.68 1125.81,2068.88C1154.74,2061.44 1174.81,2072.38 1174.81,2072.38L1659.03,1947.26L1670.47,1989.99L1170.95,2118.43C1170.95,2118.43 1162.1,2102.3 1130.27,2108.42C1104.96,2113.28 1100.38,2135.61 1100.38,2135.61L1002.12,2160.63L651.8,1973.31C651.8,1973.31 649.426,1953.16 653.177,1946.51C658.965,1936.24 677.153,1935.01 677.153,1935.01L728.075,1965.72Z" style="fill:none;stroke:rgb(225,69,61);stroke-width:8.33px;"/>
            <path d="M1001.93,2160.63L1001.93,2856.21" style="fill:none;stroke:rgb(225,69,61);stroke-width:8.33px;"/>
            <g transform="matrix(1,0,0,1,-2,0)">
                <path d="M1102,2137.71L1102,2843.59" style="fill:none;stroke:rgb(225,69,61);stroke-width:8.33px;"/>
            </g>
            <path d="M1172.69,2120.83L1172.69,2830.11" style="fill:none;stroke:rgb(225,69,61);stroke-width:8.33px;"/>
        </g>
    </g>
</svg>
