<?xml version="1.0" encoding="UTF-8" standalone="no"?>
<!DOCTYPE svg PUBLIC "-//W3C//DTD SVG 1.1//EN" "http://www.w3.org/Graphics/SVG/1.1/DTD/svg11.dtd">
<svg width="100%" height="100%" viewBox="0 0 874 799" version="1.1" xmlns="http://www.w3.org/2000/svg" xmlns:xlink="http://www.w3.org/1999/xlink" xml:space="preserve" style="fill-rule:evenodd;clip-rule:evenodd;stroke-linecap:round;stroke-linejoin:round;stroke-miterlimit:1.5;">
    <g transform="matrix(1,0,0,1,-1136.91,-2550.41)">
        <g transform="matrix(1,0,0,1,1168.19,2881.33)">
            <text x="12.742px" y="0px" style="font-family:'HelveticaNeue-Light', 'Helvetica Neue';font-weight:300;font-size:45.833px;fill:rgb(225,69,61);">75 gsm</text>
        </g>
        <g transform="matrix(1,0,0,1,1484.93,2881.33)">
            <text x="12.742px" y="0px" style="font-family:'HelveticaNeue-Light', 'Helvetica Neue';font-weight:300;font-size:45.833px;fill:rgb(225,69,61);">90 gsm</text>
        </g>
        <g transform="matrix(1,0,0,1,1803.29,2881.33)">
            <text x="0px" y="0px" style="font-family:'HelveticaNeue-Light', 'Helvetica Neue';font-weight:300;font-size:45.833px;fill:rgb(225,69,61);">105 gsm</text>
        </g>
        <g transform="matrix(1,0,0,1,1168.19,3309.86)">
            <text x="0px" y="0px" style="font-family:'HelveticaNeue-Light', 'Helvetica Neue';font-weight:300;font-size:45.833px;fill:rgb(225,69,61);">120 gsm</text>
        </g>
        <g transform="matrix(1,0,0,1,1484.93,3309.86)">
            <text x="0px" y="0px" style="font-family:'HelveticaNeue-Light', 'Helvetica Neue';font-weight:300;font-size:45.833px;fill:rgb(225,69,61);">150 gsm</text>
        </g>
        <g transform="matrix(1,0,0,1,1803.29,3309.86)">
            <text x="0px" y="0px" style="font-family:'HelveticaNeue-Light', 'Helvetica Neue';font-weight:300;font-size:45.833px;fill:rgb(225,69,61);">165 gsm</text>
        </g>
        <g transform="matrix(1,0,0,1,1453.51,142.842)">
            <rect x="319.998" y="2410.06" width="232.894" height="357.104" style="fill:none;stroke:rgb(225,69,61);stroke-width:5px;"/>
        </g>
        <g transform="matrix(1,0,0,1,1136.78,142.842)">
            <rect x="319.998" y="2410.06" width="232.894" height="357.104" style="fill:none;stroke:rgb(225,69,61);stroke-width:3.75px;"/>
        </g>
        <g transform="matrix(1,0,0,1,820.042,142.842)">
            <rect x="319.998" y="2410.06" width="232.894" height="357.104" style="fill:none;stroke:rgb(225,69,61);stroke-width:2.5px;"/>
        </g>
        <g transform="matrix(1,0,0,1,1453.51,577.161)">
            <rect x="319.998" y="2410.06" width="232.894" height="357.104" style="fill:none;stroke:rgb(225,69,61);stroke-width:8.75px;"/>
        </g>
        <g transform="matrix(1,0,0,1,1136.78,577.161)">
            <rect x="319.998" y="2410.06" width="232.894" height="357.104" style="fill:none;stroke:rgb(225,69,61);stroke-width:7.5px;"/>
        </g>
        <g transform="matrix(1,0,0,1,820.042,577.161)">
            <rect x="319.998" y="2410.06" width="232.894" height="357.104" style="fill:none;stroke:rgb(225,69,61);stroke-width:6.25px;"/>
        </g>
    </g>
</svg>
