<?xml version="1.0" encoding="UTF-8" standalone="no"?>
<!DOCTYPE svg PUBLIC "-//W3C//DTD SVG 1.1//EN" "http://www.w3.org/Graphics/SVG/1.1/DTD/svg11.dtd">
<svg width="100%" height="100%" viewBox="0 0 1423 1423" version="1.1" xmlns="http://www.w3.org/2000/svg" xmlns:xlink="http://www.w3.org/1999/xlink" xml:space="preserve" style="fill-rule:evenodd;clip-rule:evenodd;stroke-linecap:round;stroke-linejoin:round;stroke-miterlimit:1.5;">
    <g transform="matrix(1,0,0,1,-271.16,-1438.16)">
        <path d="M763.319,1938.45C748.44,1940.22 736.99,1945.69 735.68,1966.89C738.635,1981.9 750.095,1988.17 763.319,1994.39C763.319,1994.39 785.132,2000.07 799.345,2000.04C809.854,2000.02 827.147,2000.04 840.333,1996.49C856.385,1992.16 867.304,1983.93 864.553,1981.43" style="fill:none;stroke:rgb(225,69,61);stroke-width:8.33px;"/>
        <g transform="matrix(1,0,0,1,0,112.111)">
            <path d="M763.319,1938.45C748.44,1940.22 736.99,1945.69 735.68,1966.89C738.635,1981.9 750.095,1988.17 763.319,1994.39C763.319,1994.39 785.132,2000.07 799.345,2000.04C809.854,2000.02 827.147,2000.04 840.333,1996.49C856.385,1992.16 867.304,1983.93 864.553,1981.43" style="fill:none;stroke:rgb(225,69,61);stroke-width:8.33px;"/>
        </g>
        <g transform="matrix(1,0,0,1,0,223.223)">
            <path d="M763.319,1938.45C748.44,1940.22 736.99,1945.69 735.68,1966.89C738.635,1981.9 750.095,1988.17 763.319,1994.39C763.319,1994.39 785.132,2000.07 799.345,2000.04C809.854,2000.02 827.147,2000.04 840.333,1996.49C856.385,1992.16 867.304,1983.93 864.553,1981.43" style="fill:none;stroke:rgb(225,69,61);stroke-width:8.33px;"/>
        </g>
        <g transform="matrix(1,0,0,1,0,335.334)">
            <path d="M763.319,1938.45C748.44,1940.22 736.99,1945.69 735.68,1966.89C738.635,1981.9 750.095,1988.17 763.319,1994.39C763.319,1994.39 785.132,2000.07 799.345,2000.04C809.854,2000.02 827.147,2000.04 840.333,1996.49C856.385,1992.16 867.304,1983.93 864.553,1981.43" style="fill:none;stroke:rgb(225,69,61);stroke-width:8.33px;"/>
        </g>
        <g transform="matrix(1,0,0,1,0,446.445)">
            <path d="M763.319,1938.45C748.44,1940.22 736.99,1945.69 735.68,1966.89C738.635,1981.9 750.095,1988.17 763.319,1994.39C763.319,1994.39 785.132,2000.07 799.345,2000.04C809.854,2000.02 827.147,2000.04 840.333,1996.49C856.385,1992.16 867.304,1983.93 864.553,1981.43" style="fill:none;stroke:rgb(225,69,61);stroke-width:8.33px;"/>
        </g>
        <g transform="matrix(1,0,0,1,0,558.557)">
            <path d="M763.319,1938.45C748.44,1940.22 736.99,1945.69 735.68,1966.89C738.635,1981.9 750.095,1988.17 763.319,1994.39C763.319,1994.39 785.132,2000.07 799.345,2000.04C809.854,2000.02 827.147,2000.04 840.333,1996.49C856.385,1992.16 867.304,1983.93 864.553,1981.43" style="fill:none;stroke:rgb(225,69,61);stroke-width:8.33px;"/>
        </g>
        <g transform="matrix(1,0,0,1,0,670.668)">
            <path d="M763.319,1938.45C748.44,1940.22 736.99,1945.69 735.68,1966.89C738.635,1981.9 750.095,1988.17 763.319,1994.39C763.319,1994.39 785.132,2000.07 799.345,2000.04C809.854,2000.02 827.147,2000.04 840.333,1996.49C856.385,1992.16 867.304,1983.93 864.553,1981.43" style="fill:none;stroke:rgb(225,69,61);stroke-width:8.33px;"/>
        </g>
        <g transform="matrix(1,0,0,1,0,781.85)">
            <path d="M763.319,1938.45C748.44,1940.22 736.99,1945.69 735.68,1966.89C738.635,1981.9 750.095,1988.17 763.319,1994.39C763.319,1994.39 785.132,2000.07 799.345,2000.04C809.854,2000.02 827.147,2000.04 840.333,1996.49C856.385,1992.16 867.304,1983.93 864.553,1981.43" style="fill:none;stroke:rgb(225,69,61);stroke-width:8.33px;"/>
        </g>
        <g transform="matrix(1,0,0,1,-4.99407,-1.99793)">
            <circle cx="879.904" cy="1968.89" r="17.799" style="fill:none;stroke:rgb(225,69,61);stroke-width:8.33px;"/>
        </g>
        <g transform="matrix(1,0,0,1,-4.99407,109.442)">
            <circle cx="879.904" cy="1968.89" r="17.799" style="fill:none;stroke:rgb(225,69,61);stroke-width:8.33px;"/>
        </g>
        <g transform="matrix(1,0,0,1,-4.99407,220.882)">
            <circle cx="879.904" cy="1968.89" r="17.799" style="fill:none;stroke:rgb(225,69,61);stroke-width:8.33px;"/>
        </g>
        <g transform="matrix(1,0,0,1,-4.99407,333.443)">
            <circle cx="879.904" cy="1968.89" r="17.799" style="fill:none;stroke:rgb(225,69,61);stroke-width:8.33px;"/>
        </g>
        <g transform="matrix(1,0,0,1,-4.99407,444.883)">
            <circle cx="879.904" cy="1968.89" r="17.799" style="fill:none;stroke:rgb(225,69,61);stroke-width:8.33px;"/>
        </g>
        <g transform="matrix(1,0,0,1,-4.99407,556.323)">
            <circle cx="879.904" cy="1968.89" r="17.799" style="fill:none;stroke:rgb(225,69,61);stroke-width:8.33px;"/>
        </g>
        <g transform="matrix(1,0,0,1,-4.99407,667.763)">
            <circle cx="879.904" cy="1968.89" r="17.799" style="fill:none;stroke:rgb(225,69,61);stroke-width:8.33px;"/>
        </g>
        <g transform="matrix(1,0,0,1,-4.99407,779.203)">
            <circle cx="879.904" cy="1968.89" r="17.799" style="fill:none;stroke:rgb(225,69,61);stroke-width:8.33px;"/>
        </g>
        <g transform="matrix(0.966545,0,0,0.966545,-205.901,377.729)">
            <circle cx="1229.3" cy="1832.86" r="731.411" style="fill:none;stroke:rgb(225,69,61);stroke-width:8.62px;"/>
        </g>
        <path d="M1526.74,1698.97L763.319,1826.41L763.319,2818.72" style="fill:none;stroke:rgb(225,69,61);stroke-width:8.33px;"/>
        <path d="M1557.03,1738.54L805.411,1870.02L805.411,2830.53" style="fill:none;stroke:rgb(225,69,61);stroke-width:8.33px;"/>
        <g transform="matrix(1,0,0,1,-1,-1)">
            <path d="M1536.34,1712.95L781.551,1844.47L780.686,2830.53" style="fill:none;stroke:rgb(225,69,61);stroke-width:8.33px;"/>
        </g>
        <g transform="matrix(1,0,0,1,0,-2)">
            <path d="M1546.89,1727.65L793.34,1857.15L793.34,2830.53" style="fill:none;stroke:rgb(225,69,61);stroke-width:8.33px;"/>
        </g>
    </g>
</svg>
